HIERARCHY
ROOT Hips
{
	OFFSET 0.000000 0.000000 0.000000
	CHANNELS 6 Xposition Yposition Zposition Xrotation Yrotation Zrotation
	JOINT LeftUpLeg_virtual
	{
		OFFSET 0.000000 0.000000 0.000000
		CHANNELS 3 Xrotation Yrotation Zrotation
		JOINT LeftUpLeg
		{
			OFFSET 11.394100 -6.187798 -0.413800
			CHANNELS 3 Xrotation Yrotation Zrotation
			JOINT LeftLeg
			{
				OFFSET 0.430247 -32.302673 3.732800
				CHANNELS 3 Xrotation Yrotation Zrotation
				JOINT LeftFoot
				{
					OFFSET -0.430247 -48.264931 -6.423300
					CHANNELS 3 Xrotation Yrotation Zrotation
					JOINT LeftToeBase
					{
						OFFSET 4.230900 -16.068199 23.438400
						CHANNELS 3 Xrotation Yrotation Zrotation
						JOINT LeftToe_End
						{
							OFFSET 4.510700 0.695400 19.974600
							CHANNELS 3 Xrotation Yrotation Zrotation
							End Site
							{
								OFFSET 0 0 0
							}
						}
					}
				}
			}
		}
	}
	JOINT RightUpLeg_virtual
	{
		OFFSET 0.000000 0.000000 0.000000
		CHANNELS 3 Xrotation Yrotation Zrotation
		JOINT RightUpLeg
		{
			OFFSET -11.333700 -6.187798 -0.413800
			CHANNELS 3 Xrotation Yrotation Zrotation
			JOINT RightLeg
			{
				OFFSET -0.430392 -32.302628 3.733000
				CHANNELS 3 Xrotation Yrotation Zrotation
				JOINT RightFoot
				{
					OFFSET 0.430392 -48.264973 -6.423500
					CHANNELS 3 Xrotation Yrotation Zrotation
					JOINT RightToeBase
					{
						OFFSET -4.230900 -16.068199 23.438400
						CHANNELS 3 Xrotation Yrotation Zrotation
						JOINT RightToe_End
						{
							OFFSET -4.510700 0.695400 19.974600
							CHANNELS 3 Xrotation Yrotation Zrotation
							End Site
							{
								OFFSET 0 0 0
							}
						}
					}
				}
			}
		}
	}
	JOINT Spine_virtual
	{
		OFFSET 0.000000 0.000000 0.000000
		CHANNELS 3 Xrotation Yrotation Zrotation
		JOINT Spine
		{
			OFFSET -0.002400 12.777504 0.315300
			CHANNELS 3 Xrotation Yrotation Zrotation
			JOINT Spine1
			{
				OFFSET -0.002067 5.816869 0.032633
				CHANNELS 3 Xrotation Yrotation Zrotation
				JOINT Spine1_split
				{
					OFFSET -0.002067 5.816869 0.032633
					CHANNELS 3 Xrotation Yrotation Zrotation
					JOINT Spine2
					{
						OFFSET -0.002067 5.816869 0.032633
						CHANNELS 3 Xrotation Yrotation Zrotation
						JOINT Neck_virtual
						{
							OFFSET 0.000000 0.000000 0.000000
							CHANNELS 3 Xrotation Yrotation Zrotation
							JOINT Neck
							{
								OFFSET -0.003700 21.199493 -0.826900
								CHANNELS 3 Xrotation Yrotation Zrotation
								JOINT Head
								{
									OFFSET 0.000000 20.442200 4.834800
									CHANNELS 3 Xrotation Yrotation Zrotation
									JOINT HeadTop_End
									{
										OFFSET 0.000000 34.668396 4.968400
										CHANNELS 3 Xrotation Yrotation Zrotation
										End Site
										{
											OFFSET 0 0 0
										}
									}
								}
							}
						}
						JOINT LeftShoulder_virtual
						{
							OFFSET 0.000000 0.000000 0.000000
							CHANNELS 3 Xrotation Yrotation Zrotation
							JOINT LeftShoulder
							{
								OFFSET 3.288150 8.794197 -1.372250
								CHANNELS 3 Xrotation Yrotation Zrotation
								JOINT LeftShoulder_split
								{
									OFFSET 3.288150 8.794197 -1.372250
									CHANNELS 3 Xrotation Yrotation Zrotation
									JOINT LeftArm
									{
										OFFSET 11.953299 -2.279007 -0.146200
										CHANNELS 3 Xrotation Yrotation Zrotation
										JOINT LeftForeArm
										{
											OFFSET 18.448900 0.000000 0.000000
											CHANNELS 3 Xrotation Yrotation Zrotation
											JOINT LeftHand
											{
												OFFSET 29.527798 0.000000 0.000000
												CHANNELS 3 Xrotation Yrotation Zrotation
												End Site
												{
													OFFSET 0 0 0
												}
											}
										}
									}
								}
							}
						}
						JOINT RightShoulder_virtual
						{
							OFFSET 0.000000 0.000000 0.000000
							CHANNELS 3 Xrotation Yrotation Zrotation
							JOINT RightShoulder
							{
								OFFSET -3.249400 8.794197 -1.372250
								CHANNELS 3 Xrotation Yrotation Zrotation
								JOINT RightShoulder_split
								{
									OFFSET -3.249400 8.794197 -1.372250
									CHANNELS 3 Xrotation Yrotation Zrotation
									JOINT RightArm
									{
										OFFSET -11.953299 -2.279007 -0.146200
										CHANNELS 3 Xrotation Yrotation Zrotation
										JOINT RightForeArm
										{
											OFFSET -18.448900 0.000000 0.000000
											CHANNELS 3 Xrotation Yrotation Zrotation
											JOINT RightHand
											{
												OFFSET -29.527802 0.000000 0.000000
												CHANNELS 3 Xrotation Yrotation Zrotation
												End Site
												{
													OFFSET 0 0 0
												}
											}
										}
									}
								}
							}
						}
					}
				}
			}
		}
	}
}
MOTION
Frames: 6
Frame Time: 0.03333333
-8.256770 85.398514 0.484722 0.000000 0.000000 0.000000 28.739681 -44.884209 12.369867 -100.102972 -4.664579 8.920398 64.196893 1.863630 -0.104025 28.399291 -3.234429 -5.616418 -4.185808 2.919024 -0.408069 0.000000 0.000000 0.000000 26.517333 -43.604457 10.377339 -26.530613 -16.167473 -14.820800 47.658919 -10.235094 2.730006 -17.495424 -12.760788 24.571882 -4.702081 -1.076442 5.645930 0.000000 0.000000 0.000000 30.657000 -44.874435 13.401926 -1.634998 6.337974 -1.877296 -1.300065 2.493182 0.410428 0.907467 -1.001370 0.311688 0.000000 0.000000 0.000000 0.386456 0.203264 1.211001 10.536649 6.440891 -8.260883 -3.448495 20.545627 11.280741 0.000000 0.000000 0.000000 -2.663336 1.272527 0.924697 3.476013 3.755138 -9.876279 0.741605 4.667674 1.250196 -52.347403 -28.708795 -48.569199 0.513475 -71.017124 2.135091 0.000000 0.000000 0.000000 -2.349410 0.155657 0.714756 -12.686667 -0.468180 -4.124588 -8.011710 0.375211 -1.452730 -107.539812 37.138187 126.083748 -4.583907 24.903527 1.999844 0.000000 0.000000 0.000000 
-7.192181 86.534492 -4.650341 0.000000 0.000000 0.000000 29.149533 -42.649883 11.207236 -96.974117 -4.866114 7.355644 66.792823 1.421753 0.641700 24.812744 -3.998903 -6.684181 -5.921410 2.099435 1.752422 0.000000 0.000000 0.000000 26.957741 -43.700264 10.115799 -25.823677 -18.607157 -12.871575 44.340932 -9.236967 1.942261 -19.319991 -11.905805 25.810684 -3.748445 -0.024917 3.067162 0.000000 0.000000 0.000000 32.506270 -44.732118 13.729915 -2.223510 6.563868 -1.340210 -1.316930 2.629156 0.307187 2.008002 -1.140559 0.482561 0.000000 0.000000 0.000000 0.432060 0.301315 1.166082 10.677584 6.285202 -8.022618 -3.199851 20.557266 11.226508 0.000000 0.000000 0.000000 -2.419745 1.300955 0.818983 3.370552 3.254199 -10.102435 1.468628 4.837440 1.265771 -52.125989 -28.998333 -48.311926 0.320770 -70.343695 1.896384 0.000000 0.000000 0.000000 -2.108817 0.348474 0.810129 -12.719157 -0.785815 -3.774216 -8.460077 0.542460 -1.429144 -107.391221 37.858506 126.112790 -4.313303 23.273632 1.959750 0.000000 0.000000 0.000000 
-5.920439 87.865891 -11.589508 0.000000 0.000000 0.000000 29.841247 -42.501450 10.534237 -91.755839 -4.336744 5.372492 67.794012 0.512553 1.734216 19.223678 -5.582936 -7.170162 -9.707582 0.829349 4.912844 0.000000 0.000000 0.000000 27.910960 -45.690059 10.569767 -26.779324 -21.438313 -10.757743 41.439967 -8.172728 1.758879 -19.791503 -10.116998 25.972027 -5.058246 0.748549 -0.408249 0.000000 0.000000 0.000000 34.672933 -45.686425 14.336779 -2.451047 7.109928 -0.610465 -1.304762 3.101288 0.254142 2.464856 -1.241316 0.501388 0.000000 0.000000 0.000000 0.516872 0.696493 1.119206 10.743860 5.876053 -7.344495 -2.777317 19.826178 11.447454 0.000000 0.000000 0.000000 -2.241546 1.655409 0.745347 3.183674 2.364342 -10.292801 2.017361 4.652987 1.511982 -51.951361 -29.864305 -47.903907 -0.154041 -70.430950 1.340604 0.000000 0.000000 0.000000 -1.749790 0.864297 0.932402 -12.915097 -1.372446 -2.866328 -8.800190 0.586981 -1.740314 -106.972381 38.345368 125.691477 -3.963690 21.901273 1.752810 0.000000 0.000000 0.000000 
-4.986663 88.703011 -19.103504 0.000000 0.000000 0.000000 31.085916 -44.866051 10.906839 -86.410513 -3.757613 3.829986 67.207169 -0.895001 2.540775 13.310472 -7.557877 -6.460534 -13.579188 -0.650910 7.906542 0.000000 0.000000 0.000000 29.140903 -49.151216 11.622916 -28.872285 -23.852018 -9.325640 40.472866 -7.185477 2.235050 -19.317611 -8.472588 24.990904 -7.415451 1.191746 -3.659839 0.000000 0.000000 0.000000 36.474153 -47.593209 15.058296 -2.272519 7.869974 0.127207 -1.327007 3.769488 0.269525 1.787801 -1.011116 0.421130 0.000000 0.000000 0.000000 0.610100 1.283060 1.097611 10.651715 5.308800 -6.394361 -2.337767 18.598919 11.812768 0.000000 0.000000 0.000000 -2.145520 2.212692 0.724769 2.977151 1.330983 -10.379173 2.327038 4.377352 1.710962 -51.938801 -31.087473 -47.289802 -0.865201 -71.046562 0.518301 0.000000 0.000000 0.000000 -1.365590 1.579243 1.079920 -13.196878 -2.068843 -1.773206 -8.974775 0.535852 -2.148720 -106.448601 38.383440 125.009619 -3.630695 21.281345 1.465265 0.000000 0.000000 0.000000 
-4.565650 88.393387 -26.304371 0.000000 0.000000 0.000000 32.666735 -48.620483 12.133265 -82.683832 -3.436340 3.506174 66.452809 -2.209331 2.581002 8.517578 -8.871022 -4.030653 -14.881761 -1.529735 8.978445 0.000000 0.000000 0.000000 30.607761 -53.097030 12.967951 -29.917192 -24.844407 -8.745828 41.846045 -6.795762 2.983124 -18.643286 -8.547986 22.531621 -9.338849 1.088267 -5.866832 0.000000 0.000000 0.000000 37.060822 -49.980480 15.334383 -1.655746 8.728792 0.681092 -1.385152 4.439637 0.379686 0.979729 -0.386344 0.412614 0.000000 0.000000 0.000000 0.654459 1.865742 1.136412 10.454278 4.662304 -5.396950 -2.003547 17.282995 12.137164 0.000000 0.000000 0.000000 -2.111357 2.762109 0.757101 2.828264 0.459727 -10.510828 2.327774 4.313368 1.834729 -52.123598 -32.382210 -46.506693 -1.648066 -71.606549 -0.392331 0.000000 0.000000 0.000000 -1.060898 2.299460 1.248970 -13.456167 -2.714330 -0.855506 -8.568444 0.428309 -2.492405 -105.941404 37.910183 124.282983 -3.385666 21.556731 1.202357 0.000000 0.000000 0.000000 
-4.518778 86.606865 -33.405094 0.000000 0.000000 0.000000 34.037329 -52.478030 13.678682 -82.123032 -3.707830 4.838361 66.478272 -2.875257 1.674932 5.115953 -8.794943 -0.026725 -12.445429 -1.216721 7.537994 0.000000 0.000000 0.000000 31.785935 -56.611224 14.207683 -28.097733 -23.646771 -9.210277 45.021673 -6.799192 3.509937 -17.542583 -11.073290 19.551550 -10.358748 0.471611 -6.780366 0.000000 0.000000 0.000000 36.277064 -52.255551 14.939437 -0.739994 9.536037 0.972379 -1.501771 4.894536 0.567700 0.776617 0.417841 0.208782 0.000000 0.000000 0.000000 0.597489 2.274046 1.236451 10.213635 4.059694 -4.539411 -1.749378 16.207764 12.267535 0.000000 0.000000 0.000000 -2.140600 3.124996 0.812919 2.768488 -0.093953 -10.703351 2.176486 4.305711 1.879566 -52.483682 -33.520676 -45.750243 -2.228737 -71.610053 -1.110309 0.000000 0.000000 0.000000 -0.873820 2.841496 1.438024 -13.615063 -3.119879 -0.364751 -7.707109 0.299501 -2.796499 -105.600537 37.081616 123.692554 -3.262189 22.409817 1.061059 0.000000 0.000000 0.000000 
